<?xml version="1.0" encoding="UTF-8" standalone="no"?>
<svg
   xmlns:dc="http://purl.org/dc/elements/1.1/"
   xmlns:cc="http://creativecommons.org/ns#"
   xmlns:rdf="http://www.w3.org/1999/02/22-rdf-syntax-ns#"
   xmlns:svg="http://www.w3.org/2000/svg"
   xmlns="http://www.w3.org/2000/svg"
   xmlns:sodipodi="http://sodipodi.sourceforge.net/DTD/sodipodi-0.dtd"
   xmlns:inkscape="http://www.inkscape.org/namespaces/inkscape"
   version="1.1"
   width="24"
   height="24"
   viewbox="0 0 24 24"
   id="svg60"
   sodipodi:docname="earfedIcon.svg"
   inkscape:version="1.0.1 (c497b03c, 2020-09-10)"
   inkscape:export-filename="/Users/christian/dev/earfed/public/earfedIcon.png"
   inkscape:export-xdpi="512"
   inkscape:export-ydpi="512">
  <metadata
     id="metadata66">
    <rdf:RDF>
      <cc:Work
         rdf:about="">
        <dc:format>image/svg+xml</dc:format>
        <dc:type
           rdf:resource="http://purl.org/dc/dcmitype/StillImage" />
      </cc:Work>
    </rdf:RDF>
  </metadata>
  <defs
     id="defs64" />
  <sodipodi:namedview
     pagecolor="#ffffff"
     bordercolor="#666666"
     borderopacity="1"
     objecttolerance="10"
     gridtolerance="10"
     guidetolerance="10"
     inkscape:pageopacity="0"
     inkscape:pageshadow="2"
     inkscape:window-width="1718"
     inkscape:window-height="1053"
     id="namedview62"
     showgrid="false"
     inkscape:zoom="30.625"
     inkscape:cx="8.9632653"
     inkscape:cy="12"
     inkscape:window-x="0"
     inkscape:window-y="23"
     inkscape:window-maximized="0"
     inkscape:current-layer="svg60" />
  <path
     id="arrow"
     d="M 4.5 9 v 5.18 c 0 0.395 0.435 0.635 0.77 0.42 c 0 0 0 0 0 0 l 4.07 -2.59 c 0.31 -0.195 0.31 -0.645 0 -0.845 l -4.07 -2.585 c -0.335 -0.215 -0.77 0.025 -0.77 0.42 z" />
  <path
     id="path58"
     d="M 12 17 c 0.203 0 0.392 -0.042 0.532 -0.105 c 0.497 -0.259 0.847 -0.616 1.197 -1.666 c 0.357 -1.092 1.029 -1.603 1.673 -2.1 c 0.553 -0.427 1.127 -0.868 1.624 -1.771 c 0.371 -0.672 0.574 -1.407 0.574 -2.058 c 0 -1.96 -1.54 -3.5 -3.5 -3.5 c -1.96 0 -3.5 1.54 -3.5 3.5 v 0 h -1.4 v 0 c 0 -2.751 2.149 -4.9 4.9 -4.9 c 2.751 0 4.9 2.149 4.9 4.9 c 0 0.882 -0.266 1.855 -0.749 2.73 c -0.637 1.155 -1.386 1.736 -1.995 2.205 c -0.567 0.434 -0.973 0.749 -1.197 1.435 c -0.42 1.274 -0.959 1.988 -1.911 2.485 c -0.357 0.161 -0.749 0.245 -1.148 0.245 c -1.547 0 -2.8 -1.253 -2.8 -2.8 v 0 h 1.4 v 0 c 0 0.77 0.63 1.4 1.4 1.4 z"
     style="fill:#ff6600;fill-opacity:1" />
</svg>
