<?xml version="1.0" encoding="UTF-8" standalone="no"?>
<svg
   xmlns:dc="http://purl.org/dc/elements/1.1/"
   xmlns:cc="http://creativecommons.org/ns#"
   xmlns:rdf="http://www.w3.org/1999/02/22-rdf-syntax-ns#"
   xmlns:svg="http://www.w3.org/2000/svg"
   xmlns="http://www.w3.org/2000/svg"
   xmlns:sodipodi="http://sodipodi.sourceforge.net/DTD/sodipodi-0.dtd"
   xmlns:inkscape="http://www.inkscape.org/namespaces/inkscape"
   version="1.1"
   width="24"
   height="24"
   viewbox="0 0 24 24"
   id="svg60"
   sodipodi:docname="earfedIcon.svg"
   inkscape:version="1.0.1 (c497b03c, 2020-09-10)"
   inkscape:export-filename="/Users/christian/dev/earfed/public/favicon.png"
   inkscape:export-xdpi="512"
   inkscape:export-ydpi="512">
  <metadata
     id="metadata66">
    <rdf:RDF>
      <cc:Work
         rdf:about="">
        <dc:format>image/svg+xml</dc:format>
        <dc:type
           rdf:resource="http://purl.org/dc/dcmitype/StillImage" />
      </cc:Work>
    </rdf:RDF>
  </metadata>
  <defs
     id="defs64" />
  <sodipodi:namedview
     pagecolor="#ffffff"
     bordercolor="#666666"
     borderopacity="1"
     objecttolerance="10"
     gridtolerance="10"
     guidetolerance="10"
     inkscape:pageopacity="0"
     inkscape:pageshadow="2"
     inkscape:window-width="1718"
     inkscape:window-height="1053"
     id="namedview62"
     showgrid="false"
     inkscape:zoom="30.625"
     inkscape:cx="8.9632653"
     inkscape:cy="12"
     inkscape:window-x="0"
     inkscape:window-y="23"
     inkscape:window-maximized="0"
     inkscape:current-layer="svg60" />
  <path
     id="arrow"
     d="m 0,7.8857143 v 8.8799997 c 0,0.677143 0.74571429,1.088572 1.3200001,0.72 0,0 0,0 0,0 l 6.9771428,-4.44 c 0.5314285,-0.334285 0.5314285,-1.105714 0,-1.448571 L 1.3200001,7.1657143 C 0.74571429,6.7971429 0,7.2085714 0,7.8857143 Z"
     style="fill:#808080;stroke-width:1.71429" />
  <path
     id="path58"
     d="m 12,21.6 c 0.348,0 0.672,-0.072 0.912,-0.18 0.852,-0.444 1.452,-1.056 2.052,-2.856 0.611999,-1.872001 1.764,-2.748 2.868,-3.6 0.948,-0.732 1.932,-1.488 2.784,-3.036 C 21.252,10.776 21.6,9.516 21.6,8.4 21.6,5.04 18.96,2.4 15.599999,2.4 12.24,2.4 9.6,5.04 9.6,8.4 v 0 H 7.2 v 0 C 7.2,3.684 10.884,0 15.599999,0 20.316,0 24,3.684 24,8.4 c 0,1.512 -0.456,3.18 -1.284,4.68 -1.092,1.98 -2.376,2.976 -3.42,3.779999 C 18.324,17.604 17.628,18.144 17.244,19.32 16.524,21.504 15.599999,22.728 13.968,23.58 13.356,23.856 12.684,24 12,24 9.348,24 7.2,21.852 7.2,19.2 v 0 h 2.4 v 0 c 0,1.32 1.08,2.4 2.4,2.4 z"
     style="fill:#ff6600;fill-opacity:1;stroke-width:1.71429" />
</svg>
